# xmcd
#
# Track frame offsets:
# 150
# 15914
# 31151
# 47301
# 62395
# 78708
# 94186
# 116965
# 135870
# 155136
# 177280
# 193305
# 216600
#
# Disc length: 3129 seconds
#
#
# Revision: 0
# Processed by: cddbd v1.5.2PL0 Copyright (c) Steve Scherf et al.
# Submitted via: FreeRIP 2.96 
#
DISCID=ad0c370d
DTITLE=João Luiz Corrêa - Campeirismo VI - 1
DYEAR=2007
DGENRE=Gaúcha
TTITLE0=Arrasta pé no rincão
TTITLE1=Gaudério e Chineiro
TTITLE2=Campeando Gaitaço
TTITLE3=Galpão do Caburé
TTITLE4=Pra conhecer o bugio
TTITLE5=Marcas do Tempo
TTITLE6=Farrancho Missioneiro
TTITLE7=Me vou pra vanera
TTITLE8=Um bagual corcoveador
TTITLE9=Touro Pintado
TTITLE10=Na Neguinha
TTITLE11=Chinoca Teimosa - Não deu pra te esquecer
TTITLE12=Fandango em Soledade
EXTD=Disco 1
EXTT0=
EXTT1=
EXTT2=
EXTT3=
EXTT4=
EXTT5=
EXTT6=
EXTT7=
EXTT8=
EXTT9=
EXTT10=
EXTT11=
EXTT12=
PLAYORDER=
